<svg width="180" height="180" viewBox="0 0 180 180" fill="none" xmlns="http://www.w3.org/2000/svg">
<rect width="180" height="180" fill="#F7E296"/>
<path fill-rule="evenodd" clip-rule="evenodd" d="M45 37.9092V142.091H86.7061C93.4291 142.256 100.113 141.012 106.332 138.436C112.55 135.861 118.168 132.012 122.828 127.133C127.604 122.243 131.351 116.434 133.846 110.054C136.341 103.674 137.533 96.8535 137.35 90C137.533 83.1464 136.341 76.326 133.846 69.946C131.351 63.5661 127.604 57.7573 122.828 52.8667C118.168 47.9885 112.55 44.1393 106.331 41.5642C100.113 38.9891 93.4291 37.7444 86.7061 37.9092H45ZM68.6842 119.605V60.3947H86.7092C90.4154 60.2462 94.1115 61.3028 97.5612 62.6739C101.011 64.045 104.138 66.1255 106.742 68.7823C109.357 71.6275 111.382 74.9684 112.7 78.6098C114.017 82.2512 115.054 86.1201 114.868 89.9907C115.054 93.8612 114.017 97.7302 112.7 101.372C111.383 105.013 109.357 108.354 106.742 111.199C104.138 113.856 101.011 115.937 97.5616 117.308C94.1118 118.68 90.4155 119.755 86.7092 119.605H68.8692H68.6842Z" fill="black"/>
</svg>
